<svg width="26" height="17" viewBox="0 0 26 17" fill="none" xmlns="http://www.w3.org/2000/svg">
<g clip-path="url(#clip0)">
<rect width="26" height="17" fill="white"/>
<g filter="url(#filter0_d)">
<rect width="26" height="17" fill="white"/>
</g>
<path d="M17.5 16C21.6421 16 25 12.6421 25 8.5C25 4.35786 21.6421 1 17.5 1C13.3579 1 10 4.35786 10 8.5C10 12.6421 13.3579 16 17.5 16Z" fill="white"/>
<path d="M17.5 15.5C21.366 15.5 24.5 12.366 24.5 8.5C24.5 4.63401 21.366 1.5 17.5 1.5C13.634 1.5 10.5 4.63401 10.5 8.5C10.5 12.366 13.634 15.5 17.5 15.5Z" stroke="#443D5B"/>
<path d="M9.5 16C13.6421 16 17 12.6421 17 8.5C17 4.35786 13.6421 1 9.5 1C5.35786 1 2 4.35786 2 8.5C2 12.6421 5.35786 16 9.5 16Z" fill="white"/>
<path d="M9.5 15.5C13.366 15.5 16.5 12.366 16.5 8.5C16.5 4.63401 13.366 1.5 9.5 1.5C5.63401 1.5 2.5 4.63401 2.5 8.5C2.5 12.366 5.63401 15.5 9.5 15.5Z" stroke="#443D5B"/>
</g>
<defs>
<filter id="filter0_d" x="-4" y="0" width="34" height="25" filterUnits="userSpaceOnUse" color-interpolation-filters="sRGB">
<feFlood flood-opacity="0" result="BackgroundImageFix"/>
<feColorMatrix in="SourceAlpha" type="matrix" values="0 0 0 0 0 0 0 0 0 0 0 0 0 0 0 0 0 0 127 0"/>
<feOffset dy="4"/>
<feGaussianBlur stdDeviation="2"/>
<feColorMatrix type="matrix" values="0 0 0 0 0 0 0 0 0 0 0 0 0 0 0 0 0 0 0.25 0"/>
<feBlend mode="normal" in2="BackgroundImageFix" result="effect1_dropShadow"/>
<feBlend mode="normal" in="SourceGraphic" in2="effect1_dropShadow" result="shape"/>
</filter>
<clipPath id="clip0">
<rect width="26" height="17" fill="white"/>
</clipPath>
</defs>
</svg>
